<?xml version="1.0" encoding="utf-8"?>
<!-- Generator: Adobe Illustrator 25.0.1, SVG Export Plug-In . SVG Version: 6.00 Build 0)  -->
<svg version="1.1" id="Layer_1" xmlns="http://www.w3.org/2000/svg" xmlns:xlink="http://www.w3.org/1999/xlink" x="0px" y="0px"
	 viewBox="0 0 668.55 851.22" style="enable-background:new 0 0 668.55 851.22;" xml:space="preserve">
<style type="text/css">
	.st0{fill:none;stroke:#D1FAE5;stroke-width:1.75;stroke-linecap:round;stroke-miterlimit:10;}
	.st1{fill:none;stroke:#D1FAE5;stroke-width:1.75;stroke-linecap:round;stroke-miterlimit:10;stroke-dasharray:0,30.6;}
	.st2{opacity:0.5;}
	.st3{fill:#D1FAE5;}
	.st4{fill:none;}
</style>
<g class="st2">
	<path class="st3" d="M0.11,425.3C0.11,285.36,0.13,145.42,0,5.49C0,0.96,1.26,0,5.6,0.01C100.54,0.14,195.48,0.14,290.42,0
		c4.81-0.01,6.77,1.27,5.94,6.06c-1.07,6.18,1.59,7.71,7.66,7.71c119.36-0.18,238.73-0.09,358.09-0.25c5.24-0.01,6.43,1.48,6.45,6.5
		c0.02,5.01-1.68,5.91-6.27,5.9c-102.83-0.12-205.66-0.05-308.49-0.21c-5.58-0.01-8.04,1.49-7.07,7.14c0.91,5.3-1.21,6.67-6.51,6.64
		c-35.57-0.25-71.14-0.04-106.71-0.23c-4.98-0.03-7.09,1.53-6.25,6.42c1.04,6.05-1.49,7.58-7.35,7.35
		c-12.01-0.47-24.05,0.04-36.06-0.23c-4.67-0.11-6.91,1.22-6.21,6.11c0.72,5.06-0.12,8.71-6.65,7.64c-0.85-0.14-2.77,1.17-2.78,1.84
		c-0.08,3.92-1.23,9.88,0.77,11.34c4.34,3.16,3.33,6.72,3.34,10.4c0.01,3.32,1.19,5.22,4.59,4.64c7.15-1.22,5.74,3.66,6.08,7.81
		c0.42,5.2-2.92,4.48-6.03,4.43c-0.38-0.01-0.75,0-1.13,0c-23.21,0-23.15,0-23.04,23.44c0.02,3.76,1.36,5.03,5.07,5.01
		c26.3-0.1,52.61,0.06,78.91-0.16c4.56-0.04,6.27,1.37,5.5,5.74c-1.17,6.64,1.79,8.09,8.1,8.04c37.07-0.29,74.15-0.04,111.22-0.26
		c5.28-0.03,4.75,2.82,4.72,6.18c-0.03,3.27,0.71,6.28-4.65,6.24c-29.81-0.24-59.62-0.01-89.43-0.19c-7.37-0.04-4.68,5.1-5.11,8.66
		c-0.46,3.77,0.07,6.85,5.16,6.33c2.48-0.25,5.04,0.22,7.5-0.1c5.21-0.68,7.02,0.91,7.09,6.6c0.07,6.21-3.13,5.77-7.23,5.69
		c-7.51-0.14-15.04,0.2-22.54-0.12c-5.25-0.22-5.42,2.9-5,6.51c0.4,3.44-2.27,8.54,4.87,8.49c21.67-0.15,43.34,0.1,65-0.16
		c5.53-0.07,4.39,3.29,4.48,6.4c0.09,3.2,0.59,6.01-4.5,6c-70.89-0.15-141.78-0.01-212.67-0.24c-7.44-0.02-5.72,4.42-6.09,8.59
		c-0.43,4.81,1.14,6.53,6.24,6.52c172.84-0.12,345.69-0.07,518.53-0.23c5.42,0,5.94,2.03,6,6.54c0.07,4.61-1.2,6.01-5.89,5.89
		c-12.64-0.33-25.3-0.13-37.95-0.1c-2.16,0-5.36-0.71-5.61,2.18c-0.35,3.93-2.44,9.81,1.1,11.57c5.1,2.54,3.81,6.02,3.76,9.47
		c-0.06,3.93,1.37,5.27,5.27,5.23c14.65-0.16,29.31,0.2,43.96-0.19c5.81-0.16,4.81,3.19,5.04,6.68c0.26,3.95-0.54,5.75-5.2,5.74
		c-123.25-0.13-246.49-0.07-369.74-0.21c-5.41-0.01-7.82,1.46-6.88,6.95c0.93,5.46-1.29,6.86-6.72,6.82
		c-38.7-0.24-77.4,0.01-116.1-0.25c-7.37-0.05-5.36,4.61-5.72,8.53c-0.4,4.34,0.57,6.57,5.79,6.56
		c171.22-0.12,342.43-0.07,513.65-0.23c5.36,0,6.01,1.94,6.05,6.51c0.04,4.57-1.17,5.92-5.88,5.91
		c-63.63-0.16-127.25-0.06-190.88-0.2c-4.93-0.01-7.13,1.44-6.29,6.38c1.02,5.99-1.42,7.41-7.31,7.38
		c-58.24-0.23-116.48-0.07-174.72-0.25c-5.37-0.02-7.5,1.66-6.59,6.84c1.01,5.79-1.51,7.78-6.99,6.8c-6.79-1.22-8.24,1.88-8.31,8.29
		c-0.07,6.76,3.3,6.66,8.15,6.64c30.69-0.12,61.37,0.05,92.06-0.17c5.5-0.04,4.44,3.24,4.51,6.37c0.07,3.17,0.64,6.03-4.48,6.02
		c-69.39-0.15-138.78,0-208.16-0.24c-7.41-0.03-5.76,4.37-6.11,8.56c-0.4,4.78,1.09,6.58,6.22,6.55
		c40.58-0.19,81.16-0.02,121.74-0.22c4.92-0.03,6.64,1.45,5.87,6.13c-0.96,5.82,1.25,7.66,7.34,7.65
		c114.98-0.18,229.96-0.09,344.94-0.27c5.58-0.01,5.44,2.55,5.55,6.57c0.12,4.21-0.76,5.86-5.5,5.86
		c-130.01-0.13-260.02-0.06-390.03-0.25c-6.69-0.01-6.68,3.18-6.77,8.07c-0.09,4.93,0.94,7.07,6.58,7.06
		c87.05-0.17,174.1-0.07,261.14-0.25c5.49-0.01,5.18,2.65,5.28,6.44c0.11,4.02-0.42,6.01-5.35,5.99
		c-58.74-0.18-117.48-0.05-176.23-0.23c-5.49-0.02-8.12,1.32-7.14,7.07c0.89,5.2-1.06,6.73-6.46,6.7
		c-50.6-0.22-101.2-0.03-151.8-0.24c-7.08-0.03-5.33,4.41-5.59,8.27c-0.27,4.03,0,6.85,5.53,6.82c37.7-0.2,75.4-0.04,113.1-0.2
		c4.29-0.02,6.12,1.15,5.38,5.46c-1.14,6.63,1.62,8.4,8.2,8.32c28.43-0.36,56.86-0.04,85.29-0.27c4.92-0.04,6.62,0.96,6.69,6.3
		c0.07,5.66-2.25,6.14-6.87,6.09c-22.29-0.2-44.59,0.03-66.88-0.18c-4.76-0.05-6.93,1.41-6.11,6.19c1.06,6.16-1.4,7.63-7.49,7.59
		c-43.84-0.28-87.67-0.06-131.51-0.24c-7.29-0.03-4.91,4.86-5.3,8.51c-0.42,3.96,0.14,6.57,5.39,6.55
		c44.21-0.17,88.43,0,132.64-0.22c5.25-0.03,7.09,1.51,6.26,6.53c-0.91,5.5,1.2,7.59,6.97,7.25c7.99-0.48,16.03-0.06,24.04-0.14
		c5.4-0.05,3.3,3.98,3.46,6.49c0.15,2.44,1.32,5.84-3.45,5.75c-8.01-0.15-16.05,0.32-24.04-0.16c-5.76-0.34-7.88,1.74-6.98,7.25
		c0.83,5.01-1,6.56-6.25,6.53c-42.08-0.23-84.17-0.05-126.25-0.23c-5.06-0.02-7.4,1.38-6.51,6.54c0.99,5.77-1.22,8-7.07,7.13
		c-8.31-1.24-14.71-0.18-12.62,10.99c0.57,3.05-2.47,2.48-4.34,2.48c-39.7,0.03-41.28,0.15-80.98-0.1c-7.39-0.05-5.32,4.65-5.7,8.55
		c-0.42,4.37,0.61,6.58,5.81,6.55c32.31-0.21,26.5,0.02,58.81-0.24c5.27-0.04,7.07,1.53,6.25,6.54c-0.91,5.51,1.25,7.25,6.97,7.24
		c175.85-0.15,351.7-0.09,527.55-0.25c5.49-0.01,5.85,2.16,5.95,6.59c0.11,4.69-1.34,5.84-5.93,5.83
		c-164.56-0.12-329.12-0.06-493.68-0.24c-6.72-0.01-6.25,3.45-6.4,7.98c-0.16,4.82,0.68,7.45,6.48,7.15
		c8.99-0.47,18.04,0.17,27.04-0.24c5.02-0.23,7.33,1.07,6.42,6.35c-0.98,5.69,1.29,7.44,7.17,7.43
		c88.55-0.18,177.1-0.08,265.65-0.25c5.44-0.01,5.24,2.57,5.32,6.41c0.08,3.96-0.33,6.04-5.32,6.03
		c-60.75-0.18-121.49-0.06-182.24-0.22c-5.2-0.01-7.29,1.64-6.4,6.65c1.06,5.99-1.57,7.14-7.18,7.11
		c-49.97-0.22-99.95-0.02-149.92-0.26c-6.63-0.03-5.99,3.57-6.06,7.86c-0.07,4.27-0.08,7.3,5.9,7.26
		c37.32-0.24,74.65-0.03,111.97-0.23c4.87-0.03,7.07,1.11,6.2,6.18c-1.02,5.9,1.37,7.66,7.39,7.6c29.05-0.31,58.12,0,87.17-0.25
		c5.78-0.05,4.47,3.41,4.66,6.61c0.2,3.44,0.15,5.86-4.71,5.8c-22.54-0.25-45.09,0.06-67.63-0.23c-5.64-0.07-8.36,1.33-7.34,7.27
		c0.87,5.03-1.03,6.53-6.26,6.5c-43.96-0.22-87.92-0.03-131.89-0.23c-6.86-0.03-5.21,4.32-5.39,8.06c-0.19,3.81-0.44,7.04,5.31,7.01
		c44.09-0.18,88.18-0.02,132.26-0.21c4.77-0.02,6.8,1.2,5.96,6.03c-1.06,6.13,1.47,8.24,7.63,7.72c6.22-0.52,12.62,0.59,18.75-0.28
		c9-1.29,8.73,3.86,8.18,9.9c-0.23,2.6-2,2.45-3.79,2.45c-7.89,0-15.8,0.33-23.67-0.11c-5.56-0.31-8.09,1.4-7.11,7.1
		c0.9,5.25-1.12,6.7-6.48,6.67c-42.08-0.23-84.17-0.06-126.25-0.23c-4.94-0.02-7.13,1.45-6.29,6.39c1.02,5.99-1.41,8.18-7.32,7.3
		c-2.45-0.37-5.05,0.27-7.5-0.12c-7.92-1.27-11.55,1.49-10.05,9.82c0.31,1.72,0.16,4.06-2.4,3.67c-7.08-1.07-8.07,2.87-7.31,8.39
		c0.56,4.08-0.96,5.67-5.18,5.31c-3.98-0.34-8.03,0.19-12.01-0.13c-8.16-0.66-15.39-0.69-12.98,11.06c0.45,2.18-1.46,2.53-3.25,2.52
		c-13.78-0.01-27.56-0.1-41.33,0.05c-4.4,0.05-3.57-2.85-3.57-5.36C0.1,705.67,0.11,565.48,0.11,425.3z"/>
</g>
<path id="Path_2" class="st4" d="M738.67,771.98h-733l100-768h633V771.98z"/>
</svg>
