<svg id="Layer_1" data-name="Layer 1" xmlns="http://www.w3.org/2000/svg" xmlns:xlink="http://www.w3.org/1999/xlink" viewBox="0 0 640 640"><defs><style>.cls-1{fill:none;}.cls-2{fill:#6ee7b7;}.cls-3{clip-path:url(#clip-path);}.cls-4{fill:#fff;}.cls-5{fill:#3b170e;}.cls-6{fill:#fbbf24;}.cls-7{fill:#4338ca;}.cls-8{fill:#fde3c9;}.cls-9{fill:#78350f;}.cls-10{fill:#1f2937;}</style><clipPath id="clip-path"><circle class="cls-1" cx="320" cy="320" r="320"/></clipPath></defs><circle class="cls-2" cx="320" cy="320" r="320"/><g class="cls-3"><rect class="cls-4" x="199" y="351.39" width="91.36" height="40.6"/><rect class="cls-4" x="351.28" y="351.39" width="91.36" height="40.6"/><g id="Color"><rect class="cls-5" x="448.69" y="171.76" width="18.83" height="27.16"/><g id="Color-2" data-name="Color"><rect class="cls-6" x="241.97" y="544.95" width="154.26" height="95.05"/><rect class="cls-7" x="290.37" y="544.95" width="19.13" height="15.85"/><rect class="cls-7" x="335.39" y="544.95" width="19.13" height="15.85"/><rect class="cls-7" x="410.09" y="573.89" width="32.56" height="66.11"/><rect class="cls-7" x="195.51" y="573.89" width="32.56" height="66.11"/><rect class="cls-8" x="308.13" y="518.97" width="29.22" height="23.36"/><rect class="cls-8" x="382.35" y="438.81" width="29.22" height="23.36"/><rect class="cls-8" x="233.16" y="438.81" width="29.22" height="23.36"/><rect class="cls-8" x="278.91" y="438.81" width="89.58" height="46.55"/><rect class="cls-8" x="215.93" y="404.24" width="56.68" height="34.57"/><rect class="cls-8" x="365.36" y="404.24" width="56.68" height="34.57"/><path class="cls-9" d="M422.46,392v46.38H410.77v22.45H383.15v-22H366.23V421.69H272.61v17.12h-9.86v22H234.13V438.37H216.37V392H181.64v46.38H199.4v28.28h34.29v22h29.06v22.63H377.93V501.21h5.22V488.66h27.62v-22H445.5V438.37h11.69V392Zm-56.23,91.46H336.76V473.37H301.44v10.08H279.67V449.52h86.56Z"/><rect class="cls-8" x="153.26" y="242.65" width="334.07" height="178.88"/><polygon class="cls-9" points="474.51 214.63 474.51 182.03 455.34 182.03 455.34 139.66 407.16 139.66 407.16 129.4 381.5 129.4 381.5 107.41 263.48 107.41 263.48 125.19 228.17 125.19 228.17 140.07 204.78 140.07 204.78 161.41 189.52 161.41 189.52 168.2 186.35 168.2 186.35 182.03 154.59 182.03 154.59 214.63 146.99 214.63 146.99 334.68 181.72 334.68 181.72 240.97 462.94 240.97 462.94 334.68 497.67 334.68 497.67 214.63 474.51 214.63"/></g></g><rect class="cls-10" x="263.48" y="104.15" width="118.02" height="17.76"/><rect class="cls-10" x="228.17" y="121.91" width="35.31" height="17.76"/><rect class="cls-10" x="284.92" y="455.62" width="74.09" height="17.76"/><polygon class="cls-10" points="319.83 409.75 301.44 409.75 301.44 427.51 337.59 427.51 337.59 409.75 337.59 391.99 319.83 391.99 319.83 409.75"/><polygon class="cls-10" points="245.83 288.29 215.93 288.29 215.93 306.05 245.89 306.05 245.89 289.69 279.67 289.69 279.67 271.93 245.83 271.93 245.83 288.29"/><polygon class="cls-10" points="394.55 271.93 364.58 271.93 364.58 289.69 394.55 289.69 394.55 306.05 428.69 306.05 428.69 288.29 394.55 288.29 394.55 271.93"/><path class="cls-10" d="M490.88,346.31v-11.7h12v-120H486.19V186.18H474.52v-17h-13.3V152.84h-4.88V139.67h-45v17.75h28.48v16.81H458v16.34h11.67v29.62H485.3V334.61H475V231.26H457.49v-6.37H187.22v6.37h-17v11.39h-.53v92H159.41v-120H176V186.18h11.41V168.42h17.34v-11h23.39V139.67H199v11H187v17.76H171v12.24H152.67v34H141.86v120h10.81v11.7H136.24V410.1h16.43V427h28.57v17.28H199v29.06h16.93v10.25h16.85v17.59h30V483.45H233.69V465.86H216.76V438.81H199V409.75H187.22V392H199v17.76h92.26V392h16.38V364.07h29.95V392h10v17.76h92.26V392h-85V352.37h33.22v16.78h17.76V352.37h34V392H451.1V410.1H439.83v28.71h-11.3v27.05H410.77v17.59H376.63v17.76H262.75V519h27.62v11.4H262.75v12H228v16.94H210.38v11.14H192.62v17.76H181.24V640H199V588.18h11.38v-12H228V640h17.76V559.28h17v-12h9.86v11.56h17.76V547.31h17.76v11.56H290.37v17.76h17.76V565h28.63v11.63h17.76V558.87H337.35V547.31h17.17v11.56h17.76V547.31h9.92v12H394V640h17.76V576.22h16.79v12h11.28V640h17.76V588.18H446.29V570.42H428.73V559.28h-18V542.34H382.43v-12H355.11V519H382.2V501.21h28.57V483.62h17.76V473.37h17.76V438.81h11.3V427h29.74V410.1h-19.8v-46h19.8v46h16.43V346.31Zm-321.21,63h-17v-45.2h17ZM337.35,542.34H308.13V519h29.22Zm-47-178.27V392h-91V352.37h28v16.78h17.76V352.37h45.24Zm167.12-29.46H331.41v11.7H307.64v-11.7H187.22v-92H457.49Z"/><rect class="cls-10" x="381.5" y="121.91" width="29.85" height="17.76"/></g></svg>