<svg id="Layer_1" data-name="Layer 1" xmlns="http://www.w3.org/2000/svg" viewBox="0 0 64 64"><defs><style>.cls-1{fill:#6ee7b7;}</style></defs><path class="cls-1" d="M0,64H64V0H0ZM36.45,24.18c2.94,0,5.25,1,6.33,2.69h.1v-13h7.45V41.54c0,2.7.1,5.54.2,7.16H43.91l-.34-3.53h-.11A8.36,8.36,0,0,1,36,49.24c-5.69,0-10.25-4.86-10.25-12.31C25.66,28.84,30.71,24.18,36.45,24.18Zm-23-8.54H21V48.7h-7.5Z"/><path class="cls-1" d="M38.36,43.31a4.38,4.38,0,0,0,4.32-3.58A6.62,6.62,0,0,0,42.87,38V34.88a12.08,12.08,0,0,0-.1-1.34,4.48,4.48,0,0,0-4.36-3.67c-3.39,0-5.16,3-5.16,6.82C33.25,40.76,35.27,43.31,38.36,43.31Z"/></svg>