<svg id="Layer_1" data-name="Layer 1" xmlns="http://www.w3.org/2000/svg" viewBox="0 0 64 64"><defs><style>.cls-1{fill:#fbbf24;fill-rule:evenodd;}</style></defs><path class="cls-1" d="M0,0V64H64V0ZM42.84,38.05a12.66,12.66,0,0,1-2.05,3.81,9.41,9.41,0,0,1-4,2.89,12.31,12.31,0,0,1-3.06.73,16.49,16.49,0,0,1-3,.06,11.86,11.86,0,0,1-7-2.82c-.84-.72-1.6-1.51-2.38-2.29a14.92,14.92,0,0,0-2.25-2,6.22,6.22,0,0,0-4.4-.94,6.74,6.74,0,0,0-3.51,1.68,11.59,11.59,0,0,0-1.44,1.53c-.07.09-.14.2-.27.22v-.18c.24-.75.47-1.5.77-2.23a10.5,10.5,0,0,1,3.86-4.84,10.52,10.52,0,0,1,4.15-1.56A15.16,15.16,0,0,1,22,32,11.84,11.84,0,0,1,29,34.82c.81.69,1.53,1.45,2.28,2.19a24.69,24.69,0,0,0,1.84,1.7,6.21,6.21,0,0,0,4.56,1.35,6.58,6.58,0,0,0,3.85-1.73A12.33,12.33,0,0,0,43,36.8c.06-.07.11-.18.26-.18A8.41,8.41,0,0,1,42.84,38.05ZM54.11,24.47a12.72,12.72,0,0,1-2.06,3.84,9.35,9.35,0,0,1-4,2.9A12.9,12.9,0,0,1,45,32a17,17,0,0,1-2.94.05A11.78,11.78,0,0,1,35,29.21c-.88-.73-1.66-1.57-2.47-2.37a14.58,14.58,0,0,0-2.23-1.92A6.19,6.19,0,0,0,26,24a6.69,6.69,0,0,0-3.54,1.71A11.68,11.68,0,0,0,21,27.2c-.06.08-.11.18-.26.19A7.35,7.35,0,0,1,21.16,26a12.49,12.49,0,0,1,2-3.78A9.64,9.64,0,0,1,28,19a14.62,14.62,0,0,1,5.34-.51,11.83,11.83,0,0,1,7,2.87c.61.53,1.18,1.1,1.75,1.67a31.39,31.39,0,0,0,2.3,2.16,6.22,6.22,0,0,0,4.56,1.35,6.46,6.46,0,0,0,3.85-1.73,11.58,11.58,0,0,0,1.45-1.52.39.39,0,0,1,.26-.2A9,9,0,0,1,54.11,24.47Z"/></svg>