<svg id="Layer_1" data-name="Layer 1" xmlns="http://www.w3.org/2000/svg" viewBox="0 0 64 64"><defs><style>.cls-1{fill:#e13384;}</style></defs><path class="cls-1" d="M48.31,30a7.21,7.21,0,0,0-3.28.76,6,6,0,0,0-3.42,5.84,8.06,8.06,0,0,0,.49,3,5.58,5.58,0,0,0,1.31,2.06,5,5,0,0,0,2,1.16,7.64,7.64,0,0,0,2.41.38c.44,0,.84,0,1.22-.06A2.48,2.48,0,0,0,50.06,43V30.22a7.81,7.81,0,0,0-.79-.15C49,30,48.63,30,48.31,30Z"/><path class="cls-1" d="M0,0V64H64V0ZM34.43,48.13c0,.12-.14,0-.32.06H27.46c-.46,0-.78,0-1-.32-.61-1.22-1.25-2.41-1.86-3.63s-1.28-2.41-2-3.66-1.39-2.49-2.09-3.77h-.06c-.61,1.25-1.27,2.5-1.94,3.75s-1.34,2.49-2,3.71-1.33,2.47-2,3.66c-.12.29-.35.32-.67.32H7.51c-.11,0-.2.06-.2-.09a.4.4,0,0,1,.06-.32L16.4,33,7.6,18.14c-.09-.12-.12-.23-.06-.29a.34.34,0,0,1,.29-.12h6.59a1.68,1.68,0,0,1,.41.06.79.79,0,0,1,.29.26c.55,1.25,1.19,2.5,1.86,3.75s1.36,2.46,2.09,3.68,1.34,2.44,1.95,3.69h.05c.61-1.28,1.25-2.52,1.89-3.74s1.31-2.44,2-3.66,1.3-2.47,1.94-3.66a.48.48,0,0,1,.18-.29.52.52,0,0,1,.37-.06h6.13a.27.27,0,0,1,.32.2s0,.15-.09.21L25.08,32.54l9.29,15.25A.46.46,0,0,1,34.43,48.13Zm22-1.13a22.1,22.1,0,0,1-4.74,1.4,25.71,25.71,0,0,1-4.47.4A14.38,14.38,0,0,1,41,47.5a10.23,10.23,0,0,1-4.39-4A12.61,12.61,0,0,1,35,36.93,11.91,11.91,0,0,1,41.2,26.3a14.77,14.77,0,0,1,7.35-1.69,5.14,5.14,0,0,1,.61,0c.26,0,.55,0,.9.06V15.52c0-.2.08-.32.29-.32h5.89a.27.27,0,0,1,.29.21v27.7c0,.52,0,1.1.06,1.74s.09,1.19.12,1.69A.47.47,0,0,1,56.42,47Z"/></svg>