<svg id="Layer_1" data-name="Layer 1" xmlns="http://www.w3.org/2000/svg" viewBox="0 0 64 64"><defs><style>.cls-1{fill:#d1fae5;}.cls-2{fill:#4338ca;fill-rule:evenodd;}</style></defs><rect class="cls-1" width="64" height="64"/><path class="cls-2" d="M0,0V64H64V0ZM42.32,19.81,46.4,23.9,42,25.79a1.85,1.85,0,0,0-.59-.45ZM41,18.54,40,25.2a1.92,1.92,0,0,0-.7.35l-6.52-2.79a2.31,2.31,0,0,0-.38-1.12L37,14.46Zm-2.55,8.77L25.05,33.1l5-7.88a2.22,2.22,0,0,0,.37,0,2.33,2.33,0,0,0,1.94-1.05l6.12,2.62a1.84,1.84,0,0,0,0,.33C38.48,27.2,38.49,27.25,38.49,27.31Zm.64,1.32a1.64,1.64,0,0,0,.25.21l-1.17,7.3a2,2,0,0,0-1.6,1L25.67,34.89a2.13,2.13,0,0,0-.07-.44ZM32,54.5,9.5,32,32,9.5l3.9,3.9-4.7,7.35a2.36,2.36,0,0,0-.75-.13,2.3,2.3,0,0,0-1.47.53l-6-2.58-1.12,1.12,6.36,2.72a2.26,2.26,0,0,0-.07.53,2.31,2.31,0,0,0,.65,1.6l-5.1,8a2.84,2.84,0,0,0-.66-.09,2.9,2.9,0,0,0-.6.07L17,24.55,15.92,25.6l5.22,7.61a2.41,2.41,0,0,0-.47.63L9.93,31.6l-.4.4,1.27,1.28,9.31,1.94L15,37.44l1.12,1.11,4.7-2c.06.08.12.17.18.24l-2.6,4.07,1.06,1.06,2.75-4.29a2.61,2.61,0,0,0,.85.14,2.57,2.57,0,0,0,1.07-.23L34.22,52.29Zm3.88-3.87-.61.6L25.22,36.58a2.26,2.26,0,0,0,.16-.26l11,2.3A2,2,0,0,0,37.59,40Zm1.76-1.77L39.06,40a2,2,0,0,0,.89-.66L45.9,40.6Zm9.5-9.49L40.36,38a2,2,0,0,0-.74-1.37l1.19-7.42a2,2,0,0,0,1.33-.79l11.2,4.79ZM54.46,32l-11.67-5,4.73-2,7,7Z"/></svg>