<svg id="Layer_1" data-name="Layer 1" xmlns="http://www.w3.org/2000/svg" viewBox="0 0 64 64"><defs><style>.cls-1{fill:#fbbf24;}</style></defs><path class="cls-1" d="M22.37,21.2a12.62,12.62,0,0,0-3.08.29v9.74a11.91,11.91,0,0,0,2.49.19c4,0,6.42-2,6.42-5.38C28.19,23,26.09,21.2,22.37,21.2Z"/><path class="cls-1" d="M57.05,0H0V64H64V0ZM32.55,33.68c-2.54,2.4-6.32,3.47-10.71,3.47A20.32,20.32,0,0,1,19.29,37V48.8H11.9V16.26A61.1,61.1,0,0,1,22,15.57c4.6,0,7.88.88,10.08,2.65a9.62,9.62,0,0,1,3.53,7.63A10.55,10.55,0,0,1,32.55,33.68ZM43.69,49.29A16.94,16.94,0,0,1,36,47.63l1.32-5.34a14.58,14.58,0,0,0,6.42,1.81c2.24,0,3.18-.78,3.18-2s-.74-1.8-3.52-2.74c-5-1.66-6.86-4.35-6.81-7.19,0-4.45,3.82-7.84,9.74-7.84A16.09,16.09,0,0,1,53,25.7l-1.32,5.14a11.68,11.68,0,0,0-5.19-1.37c-1.8,0-2.83.73-2.83,2s.92,1.71,3.86,2.74C52.1,35.73,54,38,54.06,41.55,54.06,46,50.53,49.29,43.69,49.29Z"/></svg>