<svg id="Layer_1" data-name="Layer 1" xmlns="http://www.w3.org/2000/svg" viewBox="0 0 64 64"><defs><style>.cls-1{fill:#e13384;fill-rule:evenodd;}</style></defs><path class="cls-1" d="M51.46,39.3c0-3.14,0-6.27,0-9.4V20.75c0-.2,0-.41,0-.61a11.65,11.65,0,0,0-.23-1.87,7.4,7.4,0,0,0-.42-1.41c-.1-.23-.22-.46-.32-.69A4.66,4.66,0,0,0,49.64,15a4.78,4.78,0,0,0-.76-.73,6.83,6.83,0,0,0-1.14-.72,8.19,8.19,0,0,0-1.79-.6,12.81,12.81,0,0,0-1.63-.24c-.63-.06-1.28-.08-1.92-.09-5.92,0-11.85.08-17.77-.07-1.15,0-2.3,0-3.44,0-.44,0-.88.08-1.32.12s-1,.16-1.56.26a8.63,8.63,0,0,0-1.49.4,6.58,6.58,0,0,0-1,.49,3.25,3.25,0,0,0-.73.55,10.17,10.17,0,0,0-.84.9,6,6,0,0,0-.78,1.31A9.94,9.94,0,0,0,13,18.12a15.88,15.88,0,0,0-.27,1.94c0,.43,0,.86,0,1.29,0,7.42-.1,14.84.07,22.26,0,.29,0,.59.08.89s.1.84.18,1.26a7.49,7.49,0,0,0,.52,1.79,6.51,6.51,0,0,0,.7,1.19,5.52,5.52,0,0,0,.79.88,6.7,6.7,0,0,0,2.12,1.23,9.61,9.61,0,0,0,1.52.36,13.17,13.17,0,0,0,2.16.21H36.11c.74,0,1.47,0,2.21,0s1.55,0,2.33,0a14.1,14.1,0,0,0,1.72,0c.56,0,1.12,0,1.68-.08s1.13-.11,1.69-.22A7.47,7.47,0,0,0,48.49,50c.36-.26.66-.57,1-.86a4.28,4.28,0,0,0,.63-.72,6.61,6.61,0,0,0,.79-1.57,12.24,12.24,0,0,0,.41-1.69,18,18,0,0,0,.21-2.31,19.64,19.64,0,0,0,0-2C51.46,40.33,51.46,39.81,51.46,39.3Zm-5.22-19a1.1,1.1,0,0,1-.48.64,3.44,3.44,0,0,1-1.27.41c-.35.07-.72.05-1.08.13a.44.44,0,0,0,0,.23q0,11.27,0,22.53c0,.19,0,.28-.24.34-.6.16-1.19.35-1.79.5a6.26,6.26,0,0,1-1.93.22A3.53,3.53,0,0,1,38.3,45a2.25,2.25,0,0,1-.65-.39,4.25,4.25,0,0,1-.5-.46,3.34,3.34,0,0,0-.53-.66,1.27,1.27,0,0,1-.18-.27c-.35-.52-.67-1.06-1-1.59s-.54-.85-.81-1.27-.4-.63-.62-.94-.31-.49-.47-.73c-.29-.44-.54-.9-.85-1.33s-.41-.69-.62-1-.45-.65-.65-1-.39-.64-.59-1-.54-.88-.84-1.3a3,3,0,0,1-.31-.45c-.3-.57-.69-1.08-1-1.62s-.54-.87-.81-1.3-.4-.69-.62-1-.41-.7-.63-1-.35-.54-.56-.8a1.85,1.85,0,0,1-.35-.51s0-.07-.1-.06V42.35c.37,0,.72.1,1.09.12s.47.08.71.11l.78.11a1.5,1.5,0,0,1,.63.19.24.24,0,0,1,.09.18,1,1,0,0,1-.25.85c-.06.08-.1.17-.16.24a1.78,1.78,0,0,1-1,.52,3.89,3.89,0,0,1-1.18.13c-.56,0-1.13-.13-1.7-.14a7.68,7.68,0,0,0-1.66,0H22.9c-.65,0-1.3,0-1.95,0s-1.23.06-1.86.09a1.93,1.93,0,0,1,.09-1.19,1.56,1.56,0,0,1,.93-.83,6.15,6.15,0,0,1,1.58-.42V21.47a7.68,7.68,0,0,0-.83,0,7.74,7.74,0,0,1-1.18-.12.72.72,0,0,1-.6-.94,1.37,1.37,0,0,1,1.16-1.2,5.62,5.62,0,0,1,1-.08h7.15a1.19,1.19,0,0,1,1.06.62c.23.36.42.74.67,1.09s.53.86.81,1.28.53.83.81,1.25.45.71.67,1.08.43.68.64,1,.24.38.35.56A7.37,7.37,0,0,0,34,27a3.85,3.85,0,0,1,.3.53c.12.22.25.43.39.64l.51.78a4.76,4.76,0,0,0,.54.81,1.35,1.35,0,0,1,.17.32c.19.3.4.59.58.9s.4.64.59,1,.34.48.5.73c.29.45.56.92.87,1.36.13.18.23.38.37.55s.39.66.66,1V21.46c-.35,0-.71,0-1.06,0a2.63,2.63,0,0,1-1.34-.3.74.74,0,0,1-.22-.56,1,1,0,0,1,.18-.53,2.52,2.52,0,0,1,.66-.64,2,2,0,0,1,.94-.26c.17,0,.33,0,.5,0,2.33.09,4.66,0,7,0h.09A2.24,2.24,0,0,1,46.24,20.29Z"/><path class="cls-1" d="M0,0V64H64V0ZM54.5,31.24c0,3.5,0,7,0,10.5q0,.8,0,1.59c0,.54-.05,1.08-.12,1.62s-.16,1.15-.28,1.73a10.94,10.94,0,0,1-.91,2.67,9,9,0,0,1-.77,1.26,5.51,5.51,0,0,1-1,1.11l-.56.45c-.23.2-.51.33-.73.53a2.29,2.29,0,0,1-.5.3c-.35.18-.69.37-1.06.53a9.42,9.42,0,0,1-1.8.57,13,13,0,0,1-1.75.27c-.46,0-.92.09-1.39.11-1.26.07-2.53,0-3.79,0-6.16-.07-12.32,0-18.48,0a20.5,20.5,0,0,1-2.07-.11,15,15,0,0,1-3.1-.64c-.29-.09-.56-.22-.85-.33a9.07,9.07,0,0,1-1.13-.55,2.67,2.67,0,0,1-.68-.49,2.55,2.55,0,0,0-.39-.28,2,2,0,0,1-.44-.43,6.13,6.13,0,0,1-.87-1,6.87,6.87,0,0,0-.45-.65,6.83,6.83,0,0,1-.44-.8,10.52,10.52,0,0,1-.86-2.31,12.69,12.69,0,0,1-.32-1.74c-.07-.54-.11-1.09-.15-1.64a25,25,0,0,1-.06-2.87c0-.45,0-.9,0-1.35s0-.88,0-1.33c.06-.68,0-1.36,0-2q0-7.43,0-14.85c0-.64.07-1.29.13-1.93,0-.41.1-.82.16-1.22a12.06,12.06,0,0,1,.34-1.47,9.93,9.93,0,0,1,.84-2.05,6.27,6.27,0,0,1,.7-1.06,3.32,3.32,0,0,1,.69-.76c.11-.07.17-.21.27-.29.27-.21.53-.45.82-.65a9.85,9.85,0,0,1,.86-.57,10.62,10.62,0,0,1,1.27-.61,10.32,10.32,0,0,1,1.44-.42c.41-.09.83-.15,1.25-.22s1-.11,1.54-.21c.16,0,.33,0,.5,0a12.2,12.2,0,0,1,1.91,0c.46,0,.91,0,1.37,0,2.87,0,5.75,0,8.62,0,.66,0,1.31,0,2,0s1.09,0,1.63,0c1.59-.08,3.18,0,4.77,0,.6,0,1.2,0,1.8.07l1.17.08c.41,0,.83.1,1.25.14a14.79,14.79,0,0,1,2,.35,11.37,11.37,0,0,1,2.26.77,8.63,8.63,0,0,1,1.29.74,4.22,4.22,0,0,1,1,.82,3.68,3.68,0,0,0,.4.39,3.48,3.48,0,0,1,.45.55c.14.19.27.4.43.58a3.35,3.35,0,0,1,.3.52,4.79,4.79,0,0,1,.34.68,10.32,10.32,0,0,1,.76,2.36c.1.49.17,1,.24,1.49a27.69,27.69,0,0,1,.14,3.64Z"/></svg>