<svg id="Layer_1" data-name="Layer 1" xmlns="http://www.w3.org/2000/svg" viewBox="0 0 64 64"><defs><style>.cls-1{fill:#d1fae5;}.cls-2{fill:#4338ca;fill-rule:evenodd;}</style></defs><rect class="cls-1" width="64" height="64"/><path class="cls-2" d="M33.09,28.46a3.79,3.79,0,0,1,3,1.43L38.37,28a6.53,6.53,0,0,0-4.87-2.09,7.65,7.65,0,0,0-7.78,6.23c-.57,3.64,1.88,6.22,5.77,6.22a9.05,9.05,0,0,0,5.65-2.17L35.5,34.31a5.3,5.3,0,0,1-3.56,1.52c-2.37,0-3.68-1.52-3.36-3.68A4.41,4.41,0,0,1,33.09,28.46Z"/><path class="cls-2" d="M0,0V64H64V0ZM49.5,45.82a3.7,3.7,0,0,1-3.68,3.68H18.19a3.67,3.67,0,0,1-3.69-3.68V18.19a3.67,3.67,0,0,1,3.69-3.69H45.82a3.67,3.67,0,0,1,3.68,3.69Z"/></svg>