<svg id="Layer_1" data-name="Layer 1" xmlns="http://www.w3.org/2000/svg" viewBox="0 0 64 64"><defs><style>.cls-1{fill:#d1fae5;}.cls-2{fill:#4338ca;fill-rule:evenodd;}</style></defs><rect class="cls-1" width="64" height="64"/><path class="cls-2" d="M29.23,27.42c0-.89.93-1.75,2.52-1.75a8.37,8.37,0,0,1,4,.94,2.78,2.78,0,0,0,1.13.32,1.5,1.5,0,0,0,1.26-.72l.48-.72a1.51,1.51,0,0,0,.27-.89,1.65,1.65,0,0,0-.67-1.34,12.23,12.23,0,0,0-6.73-1.88c-4.18,0-7.4,2.2-7.4,6.14,0,7.35,10.89,5.55,10.89,8.83,0,1.26-1.18,1.87-2.66,1.87a8.88,8.88,0,0,1-5-1.47A2.41,2.41,0,0,0,26,36.27a1.32,1.32,0,0,0-1.07.59l-.67.85a1.4,1.4,0,0,0-.32.94,1.47,1.47,0,0,0,.48,1.13,10.7,10.7,0,0,0,7.54,2.79c4.93,0,8.17-2.47,8.17-6.49C40.11,28.94,29.23,30.77,29.23,27.42Z"/><path class="cls-2" d="M0,0V64H64V0ZM51.7,32.4A5.79,5.79,0,0,0,49,37.69v6c0,3.09-1.07,4.35-4,4.35H19c-2.93,0-4-1.26-4-4.35v-6a5.71,5.71,0,0,0-2.74-5.28.63.63,0,0,1,0-1.07A6.17,6.17,0,0,0,15,26.16V20.23c0-3.33.91-4.29,3.83-4.29H45.13c2.92,0,3.83,1,3.83,4.29v5.9a6.16,6.16,0,0,0,2.74,5.2A.63.63,0,0,1,51.7,32.4Z"/></svg>