<svg id="Layer_1" data-name="Layer 1" xmlns="http://www.w3.org/2000/svg" viewBox="0 0 64 64"><defs><style>.cls-1{fill:#d1fae5;}.cls-2{fill:#4338ca;fill-rule:evenodd;}</style></defs><rect class="cls-1" width="64" height="64"/><path class="cls-2" d="M0,0V64H64V0ZM38.47,51.45c-1,.19-1.4-.45-1.4-1s0-4,0-6.74A4.79,4.79,0,0,0,35.73,40c4.51-.5,9.26-1.13,9.26-8.91a6.27,6.27,0,0,0-2.08-4.75,7.63,7.63,0,0,0-.21-5.47C41,20.32,37.13,23,37.13,23A19.2,19.2,0,0,0,27,23s-3.88-2.7-5.56-2.17a7.57,7.57,0,0,0-.21,5.47,6.12,6.12,0,0,0-1.91,4.75c0,7.76,4.55,8.41,9.06,8.91a4.54,4.54,0,0,0-1.29,2.72c-1.15.53-4.11,1.43-5.88-1.68A4.24,4.24,0,0,0,18.1,39c-2,0-.13,1.24-.13,1.24,1.32.6,2.24,3,2.24,3,1.19,3.61,6.83,2.4,6.83,2.4,0,1.7,0,4.45,0,5s-.37,1.16-1.4,1A20.22,20.22,0,0,1,12,32.18,19.34,19.34,0,0,1,31.74,12.5C42.93,12.5,52,21,52,32.18A20,20,0,0,1,38.47,51.45ZM26.91,43.64c0,.16-.13.31-.37.37s-.45,0-.47-.21.13-.34.37-.4S26.89,43.49,26.91,43.64Zm-1.53.26c0,.17-.18.3-.42.3s-.45-.11-.45-.3.19-.29.42-.29S25.38,43.72,25.38,43.9Zm-1.66-.12a.38.38,0,0,1-.5.16c-.24,0-.4-.24-.35-.4a.41.41,0,0,1,.5-.18C23.62,43.43,23.77,43.61,23.72,43.78Zm-1.51-.67c-.1.13-.34.11-.52-.08s-.24-.39-.11-.5.35-.1.53.08S22.32,43,22.21,43.11ZM21.12,42c-.11.08-.33,0-.46-.19s-.13-.39,0-.47.34,0,.46.16A.39.39,0,0,1,21.12,42Zm-.8-1.19c-.11.1-.29,0-.42-.08s-.16-.34-.06-.42.29,0,.42.08S20.42,40.74,20.32,40.82Zm-.82-.9a.24.24,0,0,1-.34.06c-.17-.08-.25-.21-.19-.32s.19-.1.35,0S19.56,39.82,19.5,39.92Z"/></svg>