<svg id="Layer_1" data-name="Layer 1" xmlns="http://www.w3.org/2000/svg" viewBox="0 0 64 64"><defs><style>.cls-1{fill:#d1fae5;}.cls-2{fill:#4338ca;}</style></defs><rect class="cls-1" width="64" height="64"/><path class="cls-2" d="M26,21.9h-.09c-.48,1.93-1,4.4-1.5,6.28l-1.93,6.91h7.2l-2-6.91C27,26.25,26.46,23.83,26,21.9Z"/><path class="cls-2" d="M60.08,0H0V64H64V0ZM33.22,49,30.71,40.6H21.39L19.07,49H11.43l10-32.56h9.66L41.15,49Zm19.1,0H45V25.33h7.34ZM48.61,22.43a3.59,3.59,0,0,1-3.82-3.67A3.59,3.59,0,0,1,48.66,15a3.7,3.7,0,1,1,0,7.39Z"/></svg>