<svg id="Layer_1" data-name="Layer 1" xmlns="http://www.w3.org/2000/svg" viewBox="0 0 64 64"><defs><style>.cls-1{fill:#d1fae5;}.cls-2{fill:#4338ca;fill-rule:evenodd;}</style></defs><rect class="cls-1" width="64" height="64"/><path class="cls-2" d="M44.54,15.9a1.46,1.46,0,0,0-1.53.87c-2.5,4.41-5,8.79-7.58,13.18l-3.38,5.83a1.7,1.7,0,0,1-.57-.76l-5.61-9.7c-1.66-2.87-3.31-5.74-5-8.61-.2-.35-.32-.79-.86-.79h-5L32,44.91c5.65-9.67,11.23-19.24,16.92-29C47.29,15.92,45.91,16,44.54,15.9Z"/><path class="cls-2" d="M0,0V64H64V0ZM32,51.35,9.5,12.84a1.73,1.73,0,0,1,1.08-.17c5.15,0,10.3,0,15.45,0a1.63,1.63,0,0,1,1.68,1c1.18,2.3,2.45,4.56,3.68,6.84.18.33.37.66.61,1.08l3.34-5.28c.63-1,1.27-2,1.89-3a1.16,1.16,0,0,1,1.1-.63q7.89,0,15.79,0a2.66,2.66,0,0,1,.38.1C47,25.63,39.54,38.43,32,51.35Z"/></svg>